PathFileType	4	(X/Y/Z)	60_2_38_p0_0-375.trc
DataRate	CameraRate	NumFrames	NumMarkers	Units	OrigDataRate	OrigDataStartFrame	OrigNumFrames
60.0	60.0	6	27	m	60.0	141	376
Frame#	Time	RHip			RKnee			RAnkle			RBigToe			RSmallToe			RHeel			LHip			LKnee			LAnkle			LBigToe			LSmallToe			LHeel			Neck			Head			Nose			RShoulder			RElbow			RWrist			RThumb			RIndex			RPinky			LShoulder			LElbow			LWrist			LThumb			LIndex			LPinky			
		X1	Y1	Z1	X2	Y2	Z2	X3	Y3	Z3	X4	Y4	Z4	X5	Y5	Z5	X6	Y6	Z6	X7	Y7	Z7	X8	Y8	Z8	X9	Y9	Z9	X10	Y10	Z10	X11	Y11	Z11	X12	Y12	Z12	X13	Y13	Z13	X14	Y14	Z14	X15	Y15	Z15	X16	Y16	Z16	X17	Y17	Z17	X18	Y18	Z18	X19	Y19	Z19	X20	Y20	Z20	X21	Y21	Z21	X22	Y22	Z22	X23	Y23	Z23	X24	Y24	Z24	X25	Y25	Z25	X26	Y26	Z26	X27	Y27	Z27	
141	2.35	0.3483296042568821	0.45679800711995505	-0.20830523738667017	0.35073164413438895	0.6604193272408994	0.2227446129016571	0.35384833035419005	0.8228099943049011	0.5910143300828627	0.2884896910703481	0.6568143543732212	0.6788345485651679	0.366305598936321	0.660351038433627	0.6679360336799063	0.33086331239604516	0.9444922411579394	0.6431048897555263	0.12594944731943217	0.48939952527563413	-0.21337381313377582	0.13516713312469522	0.6667043867726904	0.20533739549336963	0.15708679182370627	0.8787171165926169	0.5886871635525767	0.12300265395245914	0.6181346330360231	0.6607182981515727	0.075982838241293	0.6805403576052469	0.6599954659459578	0.16911384386154554	0.9329866411897233	0.6294052313652521	0.26153606057068096	0.27395056202503765	-0.736787066251382	0.2575301205727873	0.17558715052361204	-0.954724831329876	0.24921779714752362	0.15847202411005967	-0.8385456680689629	0.4316855377299037	0.3392293177317737	-0.658223482571129	0.4713387872299561	0.3626637936506604	-0.39273082656282793	0.47630487392471765	0.4120192233494983	-0.1438176763981566	0.4039310728437601	0.4593190037478596	-0.004427331672869196	0.425132702994472	0.43173690914131696	0.026344264011357473	0.4758199753988256	0.4559159081402812	0.011209272834180406	0.09195752412858209	0.34457510420961307	-0.6770029501243152	0.0380931191286351	0.44230066210337393	-0.43224364468254467	-0.0029514785446211477	0.4777100480715082	-0.19175618877943512	0.042424880681048195	0.46255139826231945	-0.06544064557240464	-0.004514813810226728	0.5220258049285612	-0.04641562280493998	-0.015396911603204248	0.5317724498392578	-0.05071974806225376
142	2.3666666666666667	0.3483098671338884	0.45668904953296824	-0.20824036459055523	0.3515384322934868	0.6625622624388761	0.22633664332187023	0.3549050809980645	0.8258816026851359	0.5956933812522507	0.2894285464317078	0.6589940279641191	0.6828395809428216	0.36620326904271094	0.6595235819786135	0.6681776503073072	0.330940504630756	0.9439414106613232	0.6430784502504112	0.1258904924622836	0.48932151836757154	-0.2132270652859257	0.1392701450972574	0.6838221993637457	0.21055376146336163	0.15717401039603301	0.8784084372526991	0.5882392384999062	0.12763408002520207	0.6029235263694243	0.6572100826596867	0.07602543233021407	0.6804005732442736	0.659777928629697	0.16910977615761852	0.9327067433073746	0.6290662904688944	0.2615446390890195	0.2739934612614329	-0.7367825617603561	0.2575439297009855	0.1756493872917359	-0.9547482774141257	0.24921737213281525	0.1585273803388085	-0.838568176310454	0.43206563335372056	0.34083956470644633	-0.6551469516633822	0.4713315268626455	0.36264782569437154	-0.3927422669365067	0.47624567588528804	0.41196026662884183	-0.1438655308108701	0.40371530386249965	0.45916504878595316	-0.007857541942698786	0.4252929202940725	0.432174026719809	0.026375692995106153	0.47577632636476813	0.45610430022941423	0.011204562845890862	0.0919447879545488	0.344525017710323	-0.6769601891678675	0.03801406806367385	0.44223277637583225	-0.43220074336537867	-0.0029481171476904585	0.47771966148594425	-0.19171291335126636	0.04245876129070711	0.46259757490759573	-0.06534403798731464	-0.004459009944428576	0.5219507963961827	-0.046519333536741404	-0.010537000726785825	0.5186933083026798	-0.05051484019427545
143	2.3833333333333333	0.3483114150304687	0.4569151609697311	-0.2083202382564048	0.3514813715998322	0.6630718248497681	0.22652969530321507	0.3589215281061897	0.808155605893188	0.5922592046865649	0.28935932695841987	0.6591933215891059	0.6783740667398899	0.3664695676528058	0.6602292915941882	0.6678711642534996	0.3314667706172765	0.9436967022788266	0.6428825834934604	0.12582244029039838	0.489511324986411	-0.2132912012431009	0.13860128143032688	0.6813590879804136	0.20638053848062132	0.15710750994693312	0.8784781895533627	0.5883867644817128	0.12298098867566454	0.618060172677279	0.6607797047810477	0.07601585079496312	0.6805484685355556	0.6598836225734438	0.1681784236985678	0.9296100361240779	0.6247776545568905	0.2615315546835511	0.2739429516235094	-0.7367389801652107	0.2575433904726295	0.17565446745309338	-0.9547159080356691	0.24918850279051263	0.1583346726770118	-0.8385554088104537	0.43169505939568553	0.3392839076263009	-0.6582490407214842	0.47134147794979914	0.3626338529009113	-0.3928178995638763	0.4762886610532532	0.4120738959903484	-0.14388656184327359	0.39974155016670804	0.45891644158379885	-0.007727032638170089	0.4251556388283649	0.4321033143475996	0.026376478181064148	0.47585933145286907	0.4565950144909651	0.011019131574601522	0.09194841294234601	0.3444750153954323	-0.6769395885656555	0.03797397389985799	0.4422094817159287	-0.4321442618157743	-0.0030161496127235634	0.47773057648294753	-0.19167861231194175	0.0423654676298869	0.46238207194629616	-0.0652633148644649	-0.004419208711115837	0.5216333623858044	-0.046487806324953244	-0.015447483261729658	0.5318536441742703	-0.05046454423598165
144	2.4	0.34831141957092165	0.45696624927680807	-0.20845876037022903	0.3512660493488023	0.6619096589035574	0.22208512942160938	0.35797246764715485	0.8053592996769878	0.5875618368247634	0.29166371460516965	0.6690969004218891	0.6776571003825352	0.3701533356617299	0.6731941772093174	0.6711685936797801	0.33577031109978933	0.9246390162897007	0.6392495157718806	0.1257064267768111	0.4895033105291863	-0.21329173358864015	0.13595583991244828	0.6690682139965611	0.20956403257990744	0.1541509771063288	0.8613850073067559	0.5851261164263117	0.12301532848993482	0.6185104026664616	0.6604402168675737	0.07613728553214882	0.6805744437208366	0.6594518089059042	0.16821219377264096	0.9291243257129779	0.6240609709762415	0.261537768891088	0.2740082728980093	-0.7366466620190046	0.257500302301839	0.17439067955552515	-0.9581895618108698	0.24915418327212002	0.15872929054019153	-0.835456154541371	0.4320191325564486	0.3410118779568846	-0.6551568358161043	0.4712371043482114	0.3626563309035957	-0.39295432321886725	0.476257895267009	0.4120058933037692	-0.14388904632779845	0.399374767599563	0.45912649904672914	-0.007590052413069184	0.42482666318755197	0.43255152984716544	0.02650670905276512	0.47513226357495847	0.4572286634339288	0.014777522244613386	0.09197168493502189	0.3445517232034732	-0.6770691797164815	0.03795853226370821	0.4417037404441082	-0.4320453776133034	-0.002990743020838692	0.477533375586314	-0.19150517628416341	0.041657216131033854	0.46330841389416716	-0.061994308243540144	-0.004542914228888718	0.5218872374890038	-0.046042335290930304	-0.01776573847522451	0.5185400861632815	-0.04998634873183715
145	2.4166666666666665	0.34834019022172497	0.4570802274093461	-0.20849054532675418	0.3513309399265866	0.6623283881817593	0.22213656440215818	0.357947564012779	0.8054731645127643	0.5875350486717353	0.28943409163909634	0.6551717529612332	0.6742164232465012	0.3691492330017065	0.6708524383529152	0.6672057987275535	0.33117031489645854	0.9450886652322067	0.643018965552494	0.12576314268122735	0.48950327495338747	-0.21334498208115266	0.13600007208360632	0.6694334148699823	0.20952414362667426	0.15711735178443778	0.8784491675571137	0.5882395837614978	0.12296501982742511	0.618448616759665	0.660493429003197	0.07603354999366181	0.680872776628241	0.6597297426656165	0.16819756658855084	0.9296230725793119	0.6245285998822592	0.261534191702111	0.2740339694961949	-0.7367514969540805	0.2575371463605818	0.1757531939195063	-0.9548464812376851	0.24917685809653173	0.15873567553472673	-0.8355238236352677	0.4320310852288106	0.3409867974140988	-0.655150500877604	0.47125360706649494	0.36267731549989796	-0.39293542698679884	0.47624177387649813	0.41204526918396955	-0.14392155152144842	0.3995120455050177	0.458862578931809	-0.007707938470712704	0.4249421199246954	0.4321750647220792	0.02637923816165189	0.4751529543754921	0.45753816362641964	0.014561628277843363	0.09195962504137738	0.34455463056105884	-0.6769674623880073	0.0379486029676653	0.44168770186988154	-0.4320215403770999	-0.003008290747408491	0.47762397260018435	-0.19152836563954803	0.041686405829183995	0.46342010359806046	-0.06218254390535897	-0.004248394865831225	0.5243361425487494	-0.04231852676309339	-0.0177402232822572	0.5185760081671026	-0.05016218240385726
146	2.433333333333333	0.34840191637113793	0.45686769187621934	-0.2085444843964028	0.3512972115932524	0.6621633320713465	0.2220756719689197	0.3539905200096911	0.8231053969955298	0.5909269213166156	0.29190702621107784	0.669504432825091	0.6819078673428219	0.3693921186932749	0.6710702024697788	0.671505491199309	0.33097056005872116	0.9445776553930963	0.6430456491476937	0.12587606557862283	0.48928197488765607	-0.2133590899424455	0.13527364549910836	0.6666826138053713	0.2053655267236263	0.1570509039192325	0.8783482057317756	0.588228642503896	0.12295008505964398	0.6183342136030996	0.6606396068064894	0.07592595528548597	0.6806279521191719	0.6598444183439228	0.16801764129698474	0.929211812003685	0.6242823073400235	0.2615440836619873	0.2740338292418075	-0.7367832986152897	0.25745672210126913	0.17429799942630064	-0.9581575369232532	0.24917761224776225	0.1586688283793869	-0.8354625991909848	0.4320633617317541	0.34098998676178627	-0.6551740754489599	0.471253046913198	0.36266296097885564	-0.39296577672362065	0.4761978863581372	0.4120220790654614	-0.14397472419278093	0.40344365385649966	0.4582549417496714	-0.008210502821287683	0.4249227686007421	0.4315733326098011	0.02622947519193421	0.4749239112290088	0.45512749213570647	0.0073337486746407315	0.09197903510062352	0.34461227132328837	-0.6770536581178983	0.03818307254244396	0.44222846563172435	-0.4323728390390597	-0.003025108024446088	0.47782838963247487	-0.19156363906467855	0.037162609287214717	0.47544550645123274	-0.06520627341448917	-0.004338468461575442	0.5245468441544202	-0.0422186251411729	-0.017725853549485176	0.5185918247151154	-0.050417738995598906
